<svg xmlns="http://www.w3.org/2000/svg" version="1.1" xmlns:xlink="http://www.w3.org/1999/xlink" width="512"
     height="512" x="0" y="0" viewBox="0 0 50 50" style="enable-background:new 0 0 512 512" xml:space="preserve"
     class=""><g><path fill="#e8e8e8" d="m17.438 10.339.794-.461 2.99 1.726-.793.461z" opacity="1" data-original="#e8e8e8" class=""></path><path
        fill="#bfbfbf" d="m20.835 10.885.794-.46-.005 1.874-.794.461zM23.583 12.008l.793-.461-.001.463-.794.46z"
        opacity="1" data-original="#bfbfbf" class=""></path><path fill="#e8e8e8"
                                                                  d="m20.434 10.19.794-.46 3.148 1.817-.793.461z"
                                                                  opacity="1" data-original="#e8e8e8" class=""></path><path
        fill="#d7d7d7" d="m23.583 12.008-.002.463-2.746-1.586-.005 1.875-3.393-1.959.001-.462 2.99 1.726.006-1.875z"
        opacity="1" data-original="#d7d7d7" class=""></path><path fill="#e8e8e8"
                                                                  d="m14.845 11.908.793-.462 2.99 1.727-.793.461z"
                                                                  opacity="1" data-original="#e8e8e8" class=""></path><path
        fill="#bfbfbf" d="m18.242 12.454.794-.461-.006 1.875-.793.461zM20.99 13.577l.793-.461-.001.462-.794.461z"
        opacity="1" data-original="#bfbfbf" class=""></path><path fill="#e8e8e8"
                                                                  d="m17.84 11.759.794-.461 3.149 1.818-.794.46z"
                                                                  opacity="1" data-original="#e8e8e8" class=""></path><path
        fill="#d7d7d7" d="m20.99 13.577-.002.462-2.746-1.585-.005 1.875-3.393-1.959.001-.462 2.99 1.726.006-1.875z"
        opacity="1" data-original="#d7d7d7" class=""></path><path fill="#e8e8e8"
                                                                  d="m12.252 13.476.793-.46 2.99 1.726-.793.46z"
                                                                  opacity="1" data-original="#e8e8e8" class=""></path><path
        fill="#bfbfbf" d="m15.649 14.023.793-.461-.005 1.875-.794.46zM18.396 15.146l.793-.462-.001.463-.793.461z"
        opacity="1" data-original="#bfbfbf" class=""></path><path fill="#e8e8e8"
                                                                  d="m15.247 13.328.794-.461 3.148 1.817-.793.462z"
                                                                  opacity="1" data-original="#e8e8e8" class=""></path><path
        fill="#d7d7d7" d="m18.396 15.146-.001.462-2.746-1.585-.006 1.875-3.393-1.96.001-.462 2.99 1.727.006-1.875z"
        opacity="1" data-original="#d7d7d7" class=""></path><path fill="#e8e8e8"
                                                                  d="m9.658 15.045.793-.461 2.99 1.726-.793.462z"
                                                                  opacity="1" data-original="#e8e8e8" class=""></path><path
        fill="#bfbfbf" d="m13.055 15.591.793-.46-.005 1.874-.793.461zM15.802 16.714l.794-.46-.001.462-.794.46z"
        opacity="1" data-original="#bfbfbf" class=""></path><path fill="#e8e8e8"
                                                                  d="m12.654 14.896.793-.46 3.149 1.817-.794.461z"
                                                                  opacity="1" data-original="#e8e8e8" class=""></path><path
        fill="#d7d7d7" d="m15.802 16.714-.001.463-2.746-1.586-.005 1.875-3.393-1.959.001-.462 2.99 1.726.006-1.875z"
        opacity="1" data-original="#d7d7d7" class=""></path><path fill="#e8e8e8"
                                                                  d="m7.064 16.614.794-.461 2.99 1.726-.793.461z"
                                                                  opacity="1" data-original="#e8e8e8" class=""></path><path
        fill="#bfbfbf" d="m10.461 17.16.794-.461-.005 1.875-.794.461zM13.209 18.283l.793-.461-.001.462-.793.461z"
        opacity="1" data-original="#bfbfbf" class=""></path><path fill="#e8e8e8"
                                                                  d="m10.06 16.465.794-.46 3.148 1.817-.793.461z"
                                                                  opacity="1" data-original="#e8e8e8" class=""></path><path
        fill="#d7d7d7" d="m13.209 18.283-.001.462-2.747-1.585-.005 1.875-3.393-1.959.001-.462 2.99 1.726.006-1.875z"
        opacity="1" data-original="#d7d7d7" class=""></path><path fill="#e8e8e8"
                                                                  d="m4.471 18.183.794-.462 2.99 1.727-.794.461z"
                                                                  opacity="1" data-original="#e8e8e8" class=""></path><path
        fill="#bfbfbf" d="m7.868 18.729.793-.461-.005 1.875-.793.46zM10.615 19.852l.794-.461-.002.462-.793.461z"
        opacity="1" data-original="#bfbfbf" class=""></path><path fill="#e8e8e8"
                                                                  d="m7.467 18.034.793-.461 3.149 1.818-.794.46z"
                                                                  opacity="1" data-original="#e8e8e8" class=""></path><path
        fill="#d7d7d7" d="m10.615 19.852-.001.462-2.746-1.585-.005 1.875-3.393-1.959.001-.463 2.99 1.727.006-1.875z"
        opacity="1" data-original="#d7d7d7" class=""></path><path fill="#e8e8e8"
                                                                  d="m1.878 19.751.793-.46 2.99 1.726-.793.46z"
                                                                  opacity="1" data-original="#e8e8e8" class=""></path><path
        fill="#bfbfbf" d="m5.274 20.298.794-.462-.005 1.875-.794.462zM8.022 21.42l.793-.46v.462l-.794.461z" opacity="1"
        data-original="#bfbfbf" class=""></path><path fill="#e8e8e8" d="m4.873 19.603.794-.461 3.148 1.817-.793.462z"
                                                      opacity="1" data-original="#e8e8e8" class=""></path><path
        fill="#d7d7d7" d="m8.022 21.42-.001.463-2.747-1.585-.005 1.875-3.393-1.96.002-.462 2.99 1.727.005-1.875z"
        opacity="1" data-original="#d7d7d7" class=""></path><path fill="#e8e8e8"
                                                                  d="m33.438 12.06-.794-.461-2.99 1.726.793.462z"
                                                                  opacity="1" data-original="#e8e8e8" class=""></path><path
        fill="#bfbfbf" d="m30.04 12.606-.793-.46.006 1.874.793.461zM27.294 13.73l-.794-.462.001.463.794.46z" opacity="1"
        data-original="#bfbfbf" class=""></path><path fill="#e8e8e8" d="m30.442 11.912-.794-.462-3.148 1.818.793.461z"
                                                      opacity="1" data-original="#e8e8e8" class=""></path><path
        fill="#d7d7d7" d="M27.294 13.73v.462l2.747-1.586.005 1.875 3.393-1.958-.001-.463-2.99 1.726-.006-1.874z"
        opacity="1" data-original="#d7d7d7" class=""></path><path fill="#e8e8e8"
                                                                  d="m36.031 13.629-.793-.461-2.99 1.726.793.461z"
                                                                  opacity="1" data-original="#e8e8e8" class=""></path><path
        fill="#bfbfbf" d="m32.634 14.175-.793-.461.005 1.875.794.461zM29.887 15.298l-.793-.461v.462l.794.462z"
        opacity="1" data-original="#bfbfbf" class=""></path><path fill="#e8e8e8"
                                                                  d="m33.036 13.48-.794-.46-3.148 1.817.793.461z"
                                                                  opacity="1" data-original="#e8e8e8" class=""></path><path
        fill="#d7d7d7" d="m29.887 15.298.001.463 2.746-1.586.006 1.875 3.393-1.959-.002-.462-2.99 1.726-.005-1.875z"
        opacity="1" data-original="#d7d7d7" class=""></path><path fill="#e8e8e8"
                                                                  d="m38.625 15.197-.794-.46-2.99 1.726.793.461z"
                                                                  opacity="1" data-original="#e8e8e8" class=""></path><path
        fill="#bfbfbf" d="m35.228 15.744-.794-.461.006 1.875.793.46zM32.48 16.867l-.793-.461.001.462.794.461z"
        opacity="1" data-original="#bfbfbf" class=""></path><path fill="#e8e8e8"
                                                                  d="m35.629 15.049-.793-.461-3.149 1.818.793.46z"
                                                                  opacity="1" data-original="#e8e8e8" class=""></path><path
        fill="#d7d7d7" d="m32.48 16.867.002.462 2.746-1.585.005 1.875 3.393-1.96-.001-.462-2.99 1.727-.006-1.875z"
        opacity="1" data-original="#d7d7d7" class=""></path><path fill="#e8e8e8"
                                                                  d="m41.218 16.766-.793-.461-2.99 1.727.793.46z"
                                                                  opacity="1" data-original="#e8e8e8" class=""></path><path
        fill="#bfbfbf" d="m37.821 17.313-.793-.462.005 1.875.794.462zM35.074 18.436l-.794-.462.002.463.793.461z"
        opacity="1" data-original="#bfbfbf" class=""></path><path fill="#e8e8e8"
                                                                  d="m38.222 16.618-.793-.461-3.149 1.817.794.461z"
                                                                  opacity="1" data-original="#e8e8e8" class=""></path><path
        fill="#d7d7d7" d="m35.074 18.436.001.462 2.746-1.585.006 1.875 3.393-1.96-.002-.462-2.99 1.727-.005-1.875z"
        opacity="1" data-original="#d7d7d7" class=""></path><path fill="#e8e8e8"
                                                                  d="m43.812 18.335-.794-.461-2.99 1.726.793.461z"
                                                                  opacity="1" data-original="#e8e8e8" class=""></path><path
        fill="#bfbfbf" d="m40.415 18.881-.794-.46.005 1.874.794.461zM37.667 20.004l-.793-.46.001.462.794.46z"
        opacity="1" data-original="#bfbfbf" class=""></path><path fill="#e8e8e8"
                                                                  d="m40.816 18.186-.793-.46-3.15 1.817.794.461z"
                                                                  opacity="1" data-original="#e8e8e8" class=""></path><path
        fill="#d7d7d7" d="m37.667 20.004.002.463 2.746-1.586.005 1.875 3.393-1.959-.001-.462-2.99 1.726-.006-1.875z"
        opacity="1" data-original="#d7d7d7" class=""></path><path fill="#e8e8e8"
                                                                  d="m46.405 19.904-.793-.461-2.99 1.726.793.461z"
                                                                  opacity="1" data-original="#e8e8e8" class=""></path><path
        fill="#bfbfbf" d="m43.008 20.45-.793-.461.005 1.875.794.461zM40.26 21.573l-.793-.461.002.462.793.461z"
        opacity="1" data-original="#bfbfbf" class=""></path><path fill="#e8e8e8"
                                                                  d="m43.41 19.755-.794-.461-3.149 1.818.794.461z"
                                                                  opacity="1" data-original="#e8e8e8" class=""></path><path
        fill="#d7d7d7" d="m40.26 21.573.002.462 2.746-1.585.006 1.875 3.393-1.959-.002-.462-2.99 1.726-.005-1.875z"
        opacity="1" data-original="#d7d7d7" class=""></path><path fill="#e8e8e8"
                                                                  d="m48.999 21.472-.794-.46-2.99 1.726.793.46z"
                                                                  opacity="1" data-original="#e8e8e8" class=""></path><path
        fill="#bfbfbf" d="m45.602 22.019-.794-.461.005 1.875.794.46zM42.854 23.142l-.793-.461.001.462.794.461z"
        opacity="1" data-original="#bfbfbf" class=""></path><path fill="#e8e8e8"
                                                                  d="m46.003 21.324-.794-.461-3.148 1.817.793.462z"
                                                                  opacity="1" data-original="#e8e8e8" class=""></path><path
        fill="#d7d7d7" d="m42.854 23.142.002.462 2.746-1.585.005 1.875L49 21.934l-.001-.462-2.99 1.727-.006-1.875z"
        opacity="1" data-original="#d7d7d7" class=""></path><path fill="#3d3d3d"
                                                                  d="m43.686 21.474-.013 4.588L24.69 37.094l.013-4.589z"
                                                                  opacity="1" data-original="#3d3d3d" class=""></path><path
        fill="#4f4d4d" d="m24.703 32.505-.013 4.589L5.583 26.063l.013-4.59z" opacity="1" data-original="#4f4d4d"></path><path
        fill="#686868" d="M43.686 21.474 24.703 32.505 5.596 21.474 24.58 10.442z" opacity="1" data-original="#686868"
        class=""></path><path fill="#bfbfbf" d="m44.968 26.367.793-.461-.005 1.875-.794.46z" opacity="1"
                              data-original="#bfbfbf" class=""></path><path fill="#e8e8e8"
                                                                            d="m41.826 24.553.794-.46 3.141 1.813-.793.46z"
                                                                            opacity="1" data-original="#e8e8e8"
                                                                            class=""></path><path fill="#bfbfbf"
                                                                                                  d="m47.96 29.973.793-.462v.463l-.794.461z"
                                                                                                  opacity="1"
                                                                                                  data-original="#bfbfbf"
                                                                                                  class=""></path><path
        fill="#e8e8e8" d="m44.962 28.242.794-.461 2.997 1.73-.793.462z" opacity="1" data-original="#e8e8e8"
        class=""></path><path fill="#d7d7d7"
                              d="m44.968 26.367-.006 1.875 2.998 1.73-.001.463-3.393-1.959.005-1.875-2.746-1.585.001-.463z"
                              opacity="1" data-original="#d7d7d7" class=""></path><path fill="#bfbfbf"
                                                                                        d="m42.374 27.935.793-.461-.005 1.875-.793.461z"
                                                                                        opacity="1"
                                                                                        data-original="#bfbfbf"
                                                                                        class=""></path><path
        fill="#e8e8e8" d="m39.233 26.122.793-.462 3.141 1.814-.793.461z" opacity="1" data-original="#e8e8e8"
        class=""></path><path fill="#bfbfbf" d="m45.366 31.54.794-.46-.002.462-.793.461z" opacity="1"
                              data-original="#bfbfbf" class=""></path><path fill="#e8e8e8"
                                                                            d="m42.369 29.81.793-.461 2.998 1.73-.794.462z"
                                                                            opacity="1" data-original="#e8e8e8"
                                                                            class=""></path><path fill="#d7d7d7"
                                                                                                  d="m42.374 27.935-.005 1.875 2.997 1.73-.001.463-3.393-1.959.005-1.875-2.746-1.585.001-.463z"
                                                                                                  opacity="1"
                                                                                                  data-original="#d7d7d7"
                                                                                                  class=""></path><path
        fill="#bfbfbf" d="m39.78 29.503.794-.46-.006 1.874-.793.461z" opacity="1" data-original="#bfbfbf"
        class=""></path><path fill="#e8e8e8" d="m36.639 27.69.793-.461 3.142 1.813-.794.461z" opacity="1"
                              data-original="#e8e8e8" class=""></path><path fill="#bfbfbf"
                                                                            d="m42.773 33.11.793-.462-.001.462-.794.462z"
                                                                            opacity="1" data-original="#bfbfbf"
                                                                            class=""></path><path fill="#e8e8e8"
                                                                                                  d="m39.775 31.378.793-.46 2.998 1.73-.793.461z"
                                                                                                  opacity="1"
                                                                                                  data-original="#e8e8e8"
                                                                                                  class=""></path><path
        fill="#d7d7d7" d="m39.78 29.503-.005 1.875 2.998 1.731-.002.463-3.393-1.96.005-1.874-2.746-1.586.002-.462z"
        opacity="1" data-original="#d7d7d7" class=""></path><path fill="#bfbfbf"
                                                                  d="m37.187 31.072.793-.461-.005 1.874-.794.462z"
                                                                  opacity="1" data-original="#bfbfbf" class=""></path><path
        fill="#e8e8e8" d="m34.045 29.258.794-.461 3.141 1.813-.793.462z" opacity="1" data-original="#e8e8e8"
        class=""></path><path fill="#bfbfbf" d="m40.179 34.677.793-.46-.001.462-.793.46z" opacity="1"
                              data-original="#bfbfbf" class=""></path><path fill="#e8e8e8"
                                                                            d="m37.181 32.947.794-.462 2.997 1.731-.793.461z"
                                                                            opacity="1" data-original="#e8e8e8"
                                                                            class=""></path><path fill="#d7d7d7"
                                                                                                  d="m37.187 31.072-.006 1.875 2.998 1.73-.001.463-3.393-1.96.005-1.874-2.746-1.585.001-.463z"
                                                                                                  opacity="1"
                                                                                                  data-original="#d7d7d7"
                                                                                                  class=""></path><path
        fill="#bfbfbf" d="m34.593 32.64.793-.461-.005 1.875-.793.46z" opacity="1" data-original="#bfbfbf"
        class=""></path><path fill="#e8e8e8" d="m31.451 30.826.794-.46 3.141 1.813-.793.46z" opacity="1"
                              data-original="#e8e8e8" class=""></path><path fill="#bfbfbf"
                                                                            d="m37.585 36.246.794-.461-.002.462-.793.461z"
                                                                            opacity="1" data-original="#bfbfbf"
                                                                            class=""></path><path fill="#e8e8e8"
                                                                                                  d="m34.587 34.515.794-.461 2.998 1.73-.794.462z"
                                                                                                  opacity="1"
                                                                                                  data-original="#e8e8e8"
                                                                                                  class=""></path><path
        fill="#d7d7d7" d="m34.593 32.64-.006 1.875 2.998 1.73-.001.463-3.393-1.959.005-1.875-2.746-1.585.001-.463z"
        opacity="1" data-original="#d7d7d7" class=""></path><path fill="#bfbfbf"
                                                                  d="m32 34.208.793-.461-.006 1.875-.793.461z"
                                                                  opacity="1" data-original="#bfbfbf" class=""></path><path
        fill="#e8e8e8" d="m28.858 32.395.793-.462 3.142 1.814-.794.461z" opacity="1" data-original="#e8e8e8"
        class=""></path><path fill="#bfbfbf" d="m34.991 37.814.794-.461-.001.462-.794.461z" opacity="1"
                              data-original="#bfbfbf" class=""></path><path fill="#e8e8e8"
                                                                            d="m31.994 36.083.793-.461 2.998 1.73-.794.462z"
                                                                            opacity="1" data-original="#e8e8e8"
                                                                            class=""></path><path fill="#d7d7d7"
                                                                                                  d="m32 34.208-.006 1.875 2.997 1.73v.463l-3.394-1.959.005-1.875-2.746-1.585.002-.463z"
                                                                                                  opacity="1"
                                                                                                  data-original="#d7d7d7"
                                                                                                  class=""></path><path
        fill="#bfbfbf" d="m29.405 35.776.794-.46-.005 1.874-.794.462z" opacity="1" data-original="#bfbfbf"
        class=""></path><path fill="#e8e8e8" d="m26.264 33.963.794-.461 3.14 1.813-.793.461z" opacity="1"
                              data-original="#e8e8e8" class=""></path><path fill="#bfbfbf"
                                                                            d="m32.398 39.382.793-.461-.001.462-.794.462z"
                                                                            opacity="1" data-original="#bfbfbf"
                                                                            class=""></path><path fill="#e8e8e8"
                                                                                                  d="m29.4 37.651.794-.46 2.997 1.73-.793.461z"
                                                                                                  opacity="1"
                                                                                                  data-original="#e8e8e8"
                                                                                                  class=""></path><path
        fill="#d7d7d7" d="m29.405 35.776-.005 1.875 2.998 1.731-.002.463-3.393-1.96.006-1.874-2.746-1.586.001-.462z"
        opacity="1" data-original="#d7d7d7" class=""></path><path fill="#bfbfbf"
                                                                  d="m4.786 26.793-.794-.461.006 1.875.793.461z"
                                                                  opacity="1" data-original="#bfbfbf" class=""></path><path
        fill="#e8e8e8" d="m7.927 24.98-.793-.462-3.142 1.814.794.461z" opacity="1" data-original="#e8e8e8"
        class=""></path><path fill="#bfbfbf" d="M1.794 30.399 1 29.938l.001.462.794.461z" opacity="1"
                              data-original="#bfbfbf" class=""></path><path fill="#e8e8e8"
                                                                            d="m4.791 28.668-.793-.461L1 29.937l.794.462z"
                                                                            opacity="1" data-original="#e8e8e8"
                                                                            class=""></path><path fill="#d7d7d7"
                                                                                                  d="m4.786 26.793.005 1.875-2.998 1.73.002.463 3.393-1.959-.005-1.875 2.746-1.585-.002-.463z"
                                                                                                  opacity="1"
                                                                                                  data-original="#d7d7d7"
                                                                                                  class=""></path><path
        fill="#bfbfbf" d="m7.38 28.361-.794-.46.005 1.874.794.461z" opacity="1" data-original="#bfbfbf" class=""></path><path
        fill="#e8e8e8" d="m10.52 26.548-.793-.461L6.586 27.9l.793.461z" opacity="1" data-original="#e8e8e8"
        class=""></path><path fill="#bfbfbf" d="m4.387 31.967-.793-.461.001.462.793.461z" opacity="1"
                              data-original="#bfbfbf" class=""></path><path fill="#e8e8e8"
                                                                            d="m7.385 30.236-.794-.46-2.997 1.73.793.461z"
                                                                            opacity="1" data-original="#e8e8e8"
                                                                            class=""></path><path fill="#d7d7d7"
                                                                                                  d="m7.38 28.361.005 1.875-2.998 1.731.002.463 3.392-1.96-.005-1.875 2.746-1.585-.001-.462z"
                                                                                                  opacity="1"
                                                                                                  data-original="#d7d7d7"
                                                                                                  class=""></path><path
        fill="#bfbfbf" d="m9.973 29.93-.793-.462.005 1.875.793.462z" opacity="1" data-original="#bfbfbf"
        class=""></path><path fill="#e8e8e8" d="m13.115 28.116-.794-.461-3.141 1.813.793.462z" opacity="1"
                              data-original="#e8e8e8" class=""></path><path fill="#bfbfbf"
                                                                            d="m6.98 33.535-.793-.46.002.462.793.46z"
                                                                            opacity="1" data-original="#bfbfbf"
                                                                            class=""></path><path fill="#e8e8e8"
                                                                                                  d="m9.979 31.805-.794-.462-2.998 1.731.794.461z"
                                                                                                  opacity="1"
                                                                                                  data-original="#e8e8e8"
                                                                                                  class=""></path><path
        fill="#d7d7d7" d="m9.973 29.93.005 1.875-2.997 1.73.001.463 3.393-1.96-.005-1.874 2.746-1.586-.001-.462z"
        opacity="1" data-original="#d7d7d7" class=""></path><path fill="#bfbfbf"
                                                                  d="m12.567 31.498-.794-.461.006 1.875.793.46z"
                                                                  opacity="1" data-original="#bfbfbf" class=""></path><path
        fill="#e8e8e8" d="m15.708 29.684-.793-.461-3.142 1.814.794.46z" opacity="1" data-original="#e8e8e8"
        class=""></path><path fill="#bfbfbf" d="m9.575 35.103-.794-.46.001.462.794.461z" opacity="1"
                              data-original="#bfbfbf" class=""></path><path fill="#e8e8e8"
                                                                            d="m12.572 33.373-.793-.461-2.998 1.73.794.461z"
                                                                            opacity="1" data-original="#e8e8e8"
                                                                            class=""></path><path fill="#d7d7d7"
                                                                                                  d="m12.567 31.498.005 1.875-2.997 1.73v.463l3.394-1.959-.005-1.875 2.746-1.585-.002-.463z"
                                                                                                  opacity="1"
                                                                                                  data-original="#d7d7d7"
                                                                                                  class=""></path><path
        fill="#bfbfbf" d="m15.16 33.066-.793-.461.005 1.875.794.461z" opacity="1" data-original="#bfbfbf"
        class=""></path><path fill="#e8e8e8" d="m18.302 31.252-.794-.46-3.14 1.813.793.461z" opacity="1"
                              data-original="#e8e8e8" class=""></path><path fill="#bfbfbf"
                                                                            d="m12.168 36.672-.793-.461.001.462.794.461z"
                                                                            opacity="1" data-original="#bfbfbf"
                                                                            class=""></path><path fill="#e8e8e8"
                                                                                                  d="m15.166 34.941-.794-.461-2.997 1.73.793.462z"
                                                                                                  opacity="1"
                                                                                                  data-original="#e8e8e8"
                                                                                                  class=""></path><path
        fill="#d7d7d7" d="m15.16 33.066.006 1.875-2.998 1.73.002.463 3.393-1.959-.006-1.875 2.746-1.585-.001-.463z"
        opacity="1" data-original="#d7d7d7" class=""></path><path fill="#bfbfbf"
                                                                  d="m17.754 34.634-.793-.46.005 1.874.794.461z"
                                                                  opacity="1" data-original="#bfbfbf" class=""></path><path
        fill="#e8e8e8" d="m20.896 32.82-.794-.46-3.141 1.813.793.461z" opacity="1" data-original="#e8e8e8"
        class=""></path><path fill="#bfbfbf" d="m14.762 38.24-.793-.461v.462l.794.461z" opacity="1"
                              data-original="#bfbfbf" class=""></path><path fill="#e8e8e8"
                                                                            d="m17.76 36.51-.794-.462-2.998 1.73.794.462z"
                                                                            opacity="1" data-original="#e8e8e8"
                                                                            class=""></path><path fill="#d7d7d7"
                                                                                                  d="m17.754 34.634.006 1.875-2.998 1.731.001.463 3.393-1.96-.005-1.874 2.746-1.586-.001-.462z"
                                                                                                  opacity="1"
                                                                                                  data-original="#d7d7d7"
                                                                                                  class=""></path><path
        fill="#bfbfbf" d="m20.348 36.203-.793-.462.005 1.875.793.462z" opacity="1" data-original="#bfbfbf"
        class=""></path><path fill="#e8e8e8" d="m23.49 34.389-.794-.461-3.142 1.814.794.46z" opacity="1"
                              data-original="#e8e8e8" class=""></path><path fill="#bfbfbf"
                                                                            d="m17.356 39.808-.794-.46.001.462.794.46z"
                                                                            opacity="1" data-original="#bfbfbf"
                                                                            class=""></path><path fill="#e8e8e8"
                                                                                                  d="m20.353 38.078-.793-.462-2.998 1.731.794.461z"
                                                                                                  opacity="1"
                                                                                                  data-original="#e8e8e8"
                                                                                                  class=""></path><path
        fill="#d7d7d7" d="m20.348 36.203.005 1.875-2.997 1.73.001.463 3.393-1.96-.005-1.874 2.746-1.586-.002-.462z"
        opacity="1" data-original="#d7d7d7" class=""></path><path fill="#787677"
                                                                  d="m14.298 21.461 10.282-5.977 10.4 6.006-10.292 5.973z"
                                                                  opacity="1" data-original="#787677" class=""></path></g></svg>