<svg xmlns="http://www.w3.org/2000/svg" version="1.1" xmlns:xlink="http://www.w3.org/1999/xlink" width="512"
     height="512" x="0" y="0" viewBox="0 0 50 50" style="enable-background:new 0 0 512 512" xml:space="preserve"
     class=""><g><path fill="#4f4d4d" d="M18.825 21.4 42.813 7.46l-.08 27.814-23.986 13.94z" opacity="1" data-original="#4f4d4d" class=""></path><path
        fill="#686868" d="M7.266 14.726 31.253.786l11.56 6.674L18.825 21.4z" opacity="1" data-original="#686868"
        class=""></path><path fill="#d7d7d7" d="m18.825 21.4-.078 27.814-11.56-6.674.08-27.814z" opacity="1"
                              data-original="#d7d7d7" class=""></path><path fill="#bfbfbf"
                                                                            d="m8.003 22.7.02-6.872 6.543 3.778-.02 6.872z"
                                                                            opacity="1" data-original="#bfbfbf"
                                                                            class=""></path><path fill="#4f4d4d"
                                                                                                  d="m8.003 35.08.02-10.422 3.489 2.014-.02 10.422z"
                                                                                                  opacity="1"
                                                                                                  data-original="#4f4d4d"
                                                                                                  class=""></path><path
        fill="#bfbfbf" d="m16.442 46.74.02-10.421 1.754 1.013-.02 10.421z" opacity="1" data-original="#bfbfbf"
        class=""></path><path fill="#686868"
                              d="M13.745 22.51c.05.029.093.101.093.16 0 .058-.044.083-.094.054l-.214-.124c-.054 1.437-1.084 2.024-2.36 1.342v.247c0 .06-.042.083-.094.053a.207.207 0 0 1-.093-.16v-.248c-1.274-.79-2.297-2.562-2.34-4.055l-.215-.124a.207.207 0 0 1-.093-.162c0-.06.041-.083.093-.053l.215.124C8.695 18.126 9.724 17.54 11 18.22v-.247c0-.057.044-.082.094-.054.052.03.093.104.093.162v.246c1.275.794 2.297 2.565 2.343 4.06zm-.963-.556.562.324c-.047-1.377-.985-3.002-2.158-3.737l-.002.645c.863.551 1.555 1.75 1.598 2.768m-1.61 1.774c1.173.622 2.117.082 2.171-1.235l-.562-.325c-.048.966-.745 1.36-1.608.917zm-.175-4.65.002-.645c-1.171-.619-2.118-.082-2.17 1.239l.56.323c.05-.964.745-1.363 1.608-.916m-.012 4.541.001-.643c-.863-.553-1.553-1.748-1.597-2.768l-.56-.323c.044 1.374.984 3.003 2.156 3.734m.01-3.679.002-.648c-.76-.386-1.371-.038-1.421.81l.564.325c.047-.492.404-.698.855-.487m.18 2.279-.001.65c.761.385 1.373.037 1.42-.81l-.563-.325c-.045.493-.404.695-.856.485m.008-2.82-.001.649c.45.313.807.928.85 1.472l.563.325c-.043-.901-.65-1.953-1.412-2.445m-.196 3.362.002-.648c-.451-.313-.806-.927-.85-1.472l-.564-.326c.045.9.653 1.953 1.412 2.446m.194-2.5-.002.765.666.385a1.73 1.73 0 0 0-.664-1.15m-.189.658.002-.766c-.347-.15-.623.005-.668.381zm.186.322-.002.762c.35.155.624-.004.668-.378zm-.189.655.003-.763-.666-.385c.042.424.316.9.663 1.148M8.335 22.241a.47.47 0 0 1 .214.37c0 .136-.097.19-.215.122a.47.47 0 0 1-.213-.37c0-.136.096-.19.214-.122zM14.18 25.58a.47.47 0 0 1 .213.369c0 .136-.097.19-.215.122a.47.47 0 0 1-.213-.37c0-.136.096-.19.215-.122zM8.335 16.262a.47.47 0 0 1 .214.37c0 .136-.097.19-.215.122a.47.47 0 0 1-.213-.37c0-.136.096-.19.214-.122zM14.18 19.6a.47.47 0 0 1 .213.37c0 .136-.097.19-.215.122a.47.47 0 0 1-.213-.37c0-.136.096-.19.215-.122z"
                              opacity="1" data-original="#686868" class=""></path><path fill="#3d3d3d"
                                                                                        d="m17.943 22.592.346-.201-.006 2.234-.346.201z"
                                                                                        opacity="1"
                                                                                        data-original="#3d3d3d"></path><path
        fill="#686868" d="m15.013 20.9.346-.201 2.93 1.692-.346.2z" opacity="1" data-original="#686868" class=""></path><path
        fill="#4f4d4d" d="m17.943 22.592-.006 2.234-2.93-1.692.006-2.234z" opacity="1" data-original="#4f4d4d"
        class=""></path><path fill="#3d3d3d"
                              d="m17.785 22.706-.004 1.114c-.25.146-.395.225-.648.37l-1.324-.765-.644-1.116.004-1.113z"
                              opacity="1" data-original="#3d3d3d"></path><path fill="#bfbfbf"
                                                                               d="m15.722 22.144.54-.314.309.183-.85.493z"
                                                                               opacity="1" data-original="#bfbfbf"
                                                                               class=""></path><path fill="#e8e8e8"
                                                                                                     d="m15.65 22.102.54-.314.072.042-.54.314z"
                                                                                                     opacity="1"
                                                                                                     data-original="#e8e8e8"></path><path
        fill="#d7d7d7" d="m15.722 22.144-.001.362-.072-.041v-.363z" opacity="1" data-original="#d7d7d7" class=""></path><path
        fill="#bfbfbf" d="m16.709 22.712.54-.314.309.183-.85.494z" opacity="1" data-original="#bfbfbf" class=""></path><path
        fill="#e8e8e8" d="m16.637 22.67.54-.314.072.042-.54.314z" opacity="1" data-original="#e8e8e8"></path><path
        fill="#d7d7d7" d="m16.709 22.712-.001.363-.072-.042v-.363z" opacity="1" data-original="#d7d7d7" class=""></path><path
        fill="#bfbfbf"
        d="M15.902 32.617c.077 0 .129-.059.167-.118l.492.284c-.072.334-.328.48-.66.398zM16.09 31.938c-.057-.114-.108-.224-.185-.312l.002-.572c.332.301.586.742.655 1.157zM17.022 32.476c-.087-.719-.526-1.501-1.114-1.943l.002-.55c.823.6 1.479 1.764 1.584 2.766zM15.9 33.702c.587.237 1.03-.037 1.12-.653l.473.272c-.111.906-.771 1.282-1.595.931z"
        opacity="1" data-original="#bfbfbf" class=""></path><path fill="#bfbfbf"
                                                                  d="M17.954 33.014c-.105-1.302-.964-2.805-2.043-3.53l.002-.55c1.334.895 2.39 2.746 2.5 4.346zM15.896 34.759c1.08.512 1.944.027 2.037-1.183l.48.276c-.12 1.467-1.183 2.095-2.518 1.45zM13.362 30.936c.086 1.314.945 2.794 2.024 3.528l-.002.543c-1.334-.896-2.39-2.748-2.5-4.347z"
                                                                  opacity="1" data-original="#bfbfbf" class=""></path><path
        fill="#bfbfbf"
        d="M14.275 31.463c.087.72.526 1.502 1.114 1.944l-.002.55c-.823-.6-1.479-1.735-1.585-2.766zM14.736 31.157c.072-.334.328-.48.66-.398l-.002.572c-.076 0-.127.051-.166.11zM13.804 30.618c.111-.876.771-1.281 1.595-.93l-.001.55c-.588-.236-1.03.037-1.121.653z"
        opacity="1" data-original="#bfbfbf" class=""></path><path fill="#bfbfbf"
                                                                  d="M12.885 30.088c.119-1.467 1.182-2.095 2.517-1.45l-.001.55c-1.08-.52-1.945-.012-2.037 1.176zM15.226 32.013c.038.103.09.22.166.309l-.002.564c-.332-.302-.586-.742-.655-1.157z"
                                                                  opacity="1" data-original="#bfbfbf" class=""></path><path
        fill="#282828"
        d="m9.57 30.65-.002.975-1.28-.738.004-.975zM9.57 31.872l-.002.975-1.28-.739.004-.975zM9.57 33.093l-.002.976-1.28-.739.004-.975zM11.158 31.45l-.003.976-1.28-.739.004-.975zM11.158 32.672l-.003.976-1.28-.739.004-.975zM11.158 33.894l-.003.975-1.28-.738.004-.975z"
        opacity="1" data-original="#282828"></path><path fill="#a9c838"
                                                         d="M8.614 34.004c.223.129.403.44.403.697-.001.256-.183.359-.405.23a.886.886 0 0 1-.402-.696c0-.256.181-.36.404-.23z"
                                                         opacity="1" data-original="#a9c838"></path><path fill="#fddb00"
                                                                                                          d="M9.675 34.597c.222.129.403.44.402.697 0 .256-.182.36-.405.23-.223-.128-.403-.44-.402-.696s.182-.36.405-.23z"
                                                                                                          opacity="1"
                                                                                                          data-original="#fddb00"></path><path
        fill="#ee4541"
        d="M10.735 35.19c.222.13.403.441.402.698 0 .256-.182.359-.405.23-.223-.129-.403-.44-.402-.697s.182-.359.405-.23z"
        opacity="1" data-original="#ee4541"></path><path fill="#bfbfbf"
                                                         d="m7.67 35.343 8.316 4.801-.005 1.865-8.316-4.801zm8.086 6.272.004-1.342L7.9 35.734l-.004 1.342zM7.657 39.798l8.317 4.801-.005 1.87-8.317-4.801zm8.087 6.277.004-1.342-7.862-4.539-.004 1.342zM7.664 37.57l8.316 4.802-.005 1.865-8.316-4.802zm8.086 6.278.004-1.343-7.861-4.538-.004 1.342z"
                                                         opacity="1" data-original="#bfbfbf" class=""></path><g
        fill="#4f4d4d"><path d="M29.78 2.493a.635.635 0 0 1 .557 0l3.996 2.308c.152.09.157.237 0 .323-.152.09-.4.09-.556 0L29.78 2.817c-.157-.09-.157-.233 0-.324zM34.395 11.436c-.152.09-.4.09-.557 0L29.842 9.13c-.152-.09-.157-.233 0-.323.153-.09.4-.09.557 0l3.996 2.307c.157.09.157.233 0 .323zM28.696 3.126c.152-.09.4-.09.557 0l3.996 2.307c.156.09.156.233.004.324a.645.645 0 0 1-.561 0l-3.996-2.308c-.152-.09-.152-.233 0-.323zM27.611 3.754a.605.605 0 0 1 .557 0l3.996 2.307c.157.09.157.233.005.324a.605.605 0 0 1-.557 0l-3.996-2.307c-.157-.09-.157-.234-.004-.324zM40.898 7.66a.605.605 0 0 1-.557 0l-3.996-2.308c-.157-.09-.157-.233-.005-.323a.605.605 0 0 1 .557 0l3.996 2.307c.157.09.157.233.005.323zM26.527 4.382a.645.645 0 0 1 .561 0l3.996 2.312c.152.085.152.233 0 .319-.152.09-.4.09-.557 0l-3.995-2.308c-.157-.09-.157-.233-.005-.323zM30.86 1.866a.604.604 0 0 1 .557 0l4 2.306c.153.091.153.234 0 .324s-.404.09-.556 0L30.865 2.19c-.157-.09-.157-.233-.005-.323zM28.92 8.273a.605.605 0 0 1-.557 0l-4-2.307c-.153-.09-.153-.233 0-.323a.605.605 0 0 1 .556 0l3.996 2.307c.157.09.157.233.005.323zM36.564 10.176a.605.605 0 0 1-.556 0l-3.996-2.307c-.157-.09-.157-.233-.005-.324a.635.635 0 0 1 .556 0l4.001 2.308c.152.09.152.237 0 .323zM35.48 10.809a.636.636 0 0 1-.557 0L30.927 8.5c-.157-.09-.157-.233 0-.323.152-.09.4-.09.557 0l3.995 2.307c.153.09.158.233 0 .324zM37.649 9.548a.605.605 0 0 1-.557 0l-4-2.307c-.153-.09-.153-.233 0-.324s.4-.09.556 0l3.996 2.307c.157.09.157.234.005.324zM38.728 8.92a.635.635 0 0 1-.556 0l-3.996-2.307c-.152-.09-.157-.233 0-.324.152-.09.4-.09.557 0l3.995 2.308c.157.09.157.233 0 .323zM30 7.645a.636.636 0 0 1-.557 0l-3.996-2.307c-.152-.09-.157-.233 0-.324.152-.09.4-.09.557 0L30 7.322c.157.09.157.233 0 .323zM39.813 8.287c-.152.09-.4.09-.557 0L35.261 5.98c-.157-.09-.157-.233-.005-.323a.636.636 0 0 1 .556 0l4.001 2.307c.152.09.152.238 0 .323z" fill="#4f4d4d" opacity="1" data-original="#4f4d4d" class=""></path></g></g></svg>