<svg xmlns="http://www.w3.org/2000/svg" version="1.1" xmlns:xlink="http://www.w3.org/1999/xlink" width="512"
     height="512" x="0" y="0" viewBox="0 0 51 51" style="enable-background:new 0 0 512 512" xml:space="preserve"
     class=""><g><path fill="#30b265" d="m49.5 24.996-.002 1.005-23.92 13.9.002-1.004z" opacity="1" data-original="#30b265"></path><path
        fill="#2ebf69" d="m25.58 38.897-.002 1.005L1.5 26l.003-1.005z" opacity="1" data-original="#2ebf69"></path><path
        fill="#2ecc71"
        d="m49.5 24.998-2.05 1.19-.5.29-7.84 4.56-.61.35-10.26 5.96-.5.29-2.16 1.26-3.12-1.8-.49-.29-13.32-7.68-.56-.32-3.18-1.84-.5-.29-2.91-1.68 2.25-1.3.49-.29 10.71-6.22.5-.29 7.51-4.37.49-.29 1.97-1.14 2.91 1.68.5.29 6.7 3.87.5.29 9.85 5.68.5.29z"
        opacity="1" data-original="#2ecc71" class=""></path><path fill="#e0e2e2"
                                                                  d="m14.286 23.706.686-.399-.003 1.157-.686.398zM35.983 24.197l-.686-.398v.117l.686.399z"
                                                                  opacity="1" data-original="#e0e2e2" class=""></path><path
        fill="#e0e2e2" d="m35.407 23.134-.685-.399.003 1.156.685.399zM34.672 23.435l-.686-.399v.118l.686.399z"
        opacity="1" data-original="#e0e2e2" class=""></path><path fill="#e0e2e2"
                                                                  d="m34.096 22.372-.685-.399.003 1.156.685.399zM32.785 21.61l-.685-.399.003 1.156.685.399zM31.474 20.847l-.685-.398.003 1.156.686.399zM30.163 20.085l-.685-.398.003 1.156.686.398zM29.428 20.386l-.686-.398v.118l.686.398z"
                                                                  opacity="1" data-original="#e0e2e2" class=""></path><path
        fill="#e0e2e2" d="m28.852 19.323-.685-.398.003 1.156.686.398zM28.117 19.624l-.686-.398v.118l.686.398z"
        opacity="1" data-original="#e0e2e2" class=""></path><path fill="#e0e2e2"
                                                                  d="m27.541 18.561-.685-.398.003 1.156.686.398z"
                                                                  opacity="1" data-original="#e0e2e2" class=""></path><path
        fill="#ecf0f1" d="m27.643 18.384-.685-.398-.838.478.686.398z" opacity="1" data-original="#ecf0f1"
        class=""></path><path fill="#c4c6c6" d="M26.806 18.862v.118l.735-.419.004 1.156.102-.059-.004-1.274z"
                              opacity="1" data-original="#c4c6c6"></path><path fill="#ecf0f1"
                                                                               d="m28.954 19.146-.685-.398-.838.478.686.398z"
                                                                               opacity="1" data-original="#ecf0f1"
                                                                               class=""></path><path fill="#c4c6c6"
                                                                                                     d="M28.117 19.624v.118l.735-.419.004 1.156.102-.059-.004-1.274z"
                                                                                                     opacity="1"
                                                                                                     data-original="#c4c6c6"></path><path
        fill="#ecf0f1" d="m30.265 19.908-.685-.398-.838.478.686.398z" opacity="1" data-original="#ecf0f1"
        class=""></path><path fill="#c4c6c6" d="M29.428 20.386v.118l.735-.419.004 1.156.102-.059-.004-1.274z"
                              opacity="1" data-original="#c4c6c6"></path><path fill="#ecf0f1"
                                                                               d="m31.576 20.67-.685-.398-.838.478.686.399z"
                                                                               opacity="1" data-original="#ecf0f1"
                                                                               class=""></path><path fill="#c4c6c6"
                                                                                                     d="M30.739 21.149v.117l.735-.419.004 1.157.102-.06-.004-1.274z"
                                                                                                     opacity="1"
                                                                                                     data-original="#c4c6c6"></path><path
        fill="#ecf0f1" d="m32.887 21.433-.685-.399-.838.478.686.399z" opacity="1" data-original="#ecf0f1"
        class=""></path><path fill="#c4c6c6" d="M32.05 21.91v.118l.735-.418.003 1.156.103-.06-.004-1.273z" opacity="1"
                              data-original="#c4c6c6"></path><path fill="#ecf0f1"
                                                                   d="m34.198 22.195-.685-.399-.838.478.686.399z"
                                                                   opacity="1" data-original="#ecf0f1" class=""></path><path
        fill="#c4c6c6" d="m33.36 22.673.001.118.735-.42.003 1.157.103-.06-.004-1.273z" opacity="1"
        data-original="#c4c6c6"></path><path fill="#ecf0f1" d="m35.51 22.957-.686-.399-.838.478.686.399z" opacity="1"
                                             data-original="#ecf0f1" class=""></path><path fill="#c4c6c6"
                                                                                           d="M34.672 23.435v.118l.735-.42.003 1.157.103-.06-.004-1.273z"
                                                                                           opacity="1"
                                                                                           data-original="#c4c6c6"></path><path
        fill="#e0e2e2" d="m36.718 23.896-.685-.399.003 1.157.685.398z" opacity="1" data-original="#e0e2e2"
        class=""></path><path fill="#ecf0f1" d="m36.82 23.719-.685-.399-.838.479.686.398z" opacity="1"
                              data-original="#ecf0f1" class=""></path><path fill="#c4c6c6"
                                                                            d="M35.983 24.197v.118l.735-.42.003 1.157.103-.06-.004-1.273z"
                                                                            opacity="1" data-original="#c4c6c6"></path><path
        fill="#e0e2e2"
        d="m33.36 22.673-.685-.399v.118l.686.399zM32.05 21.91l-.686-.398v.118l.686.398zM30.739 21.149l-.686-.399v.118l.686.398z"
        opacity="1" data-original="#e0e2e2" class=""></path><path fill="#31323d"
                                                                  d="m25.419 30.339-.004 1.006-10.778-6.223.003-1.006z"
                                                                  opacity="1" data-original="#31323d"></path><path
        fill="#464957" d="m36.13 24.114-.003 1.006-10.712 6.225.004-1.006z" opacity="1" data-original="#464957"
        class=""></path><path fill="#e0e2e2"
                              d="m26.806 18.862-.686-.398v.118l.686.398zM24.043 30.923l-.686-.398.004 1.273.685.399z"
                              opacity="1" data-original="#e0e2e2" class=""></path><path fill="#ecf0f1"
                                                                                        d="m24.88 30.445-.685-.399-.838.479.686.398z"
                                                                                        opacity="1"
                                                                                        data-original="#ecf0f1"
                                                                                        class=""></path><path
        fill="#c4c6c6" d="m24.043 30.923.003 1.274.103-.06-.003-1.155.735-.42v-.117z" opacity="1"
        data-original="#c4c6c6"></path><path fill="#e0e2e2" d="m22.732 30.16-.686-.398.004 1.274.685.399z" opacity="1"
                                             data-original="#e0e2e2" class=""></path><path fill="#ecf0f1"
                                                                                           d="m23.57 29.683-.686-.399-.838.478.686.399z"
                                                                                           opacity="1"
                                                                                           data-original="#ecf0f1"
                                                                                           class=""></path><path
        fill="#c4c6c6" d="m22.732 30.16.003 1.275.103-.06-.003-1.156.735-.418v-.118z" opacity="1"
        data-original="#c4c6c6"></path><path fill="#e0e2e2" d="M21.42 29.399 20.736 29l.004 1.274.685.399z" opacity="1"
                                             data-original="#e0e2e2" class=""></path><path fill="#ecf0f1"
                                                                                           d="m22.258 28.92-.685-.398-.838.478.686.399z"
                                                                                           opacity="1"
                                                                                           data-original="#ecf0f1"
                                                                                           class=""></path><path
        fill="#c4c6c6" d="m21.42 29.399.004 1.274.103-.06-.003-1.156.735-.419v-.117z" opacity="1"
        data-original="#c4c6c6"></path><path fill="#e0e2e2" d="m20.11 28.637-.686-.399.004 1.274.686.398z" opacity="1"
                                             data-original="#e0e2e2" class=""></path><path fill="#ecf0f1"
                                                                                           d="m20.947 28.159-.685-.399-.838.478.686.399z"
                                                                                           opacity="1"
                                                                                           data-original="#ecf0f1"
                                                                                           class=""></path><path
        fill="#c4c6c6" d="m20.11 28.637.004 1.273.102-.059-.003-1.156.735-.419v-.117z" opacity="1"
        data-original="#c4c6c6"></path><path fill="#e0e2e2" d="m18.799 27.875-.686-.399.004 1.274.686.398z" opacity="1"
                                             data-original="#e0e2e2" class=""></path><path fill="#ecf0f1"
                                                                                           d="m19.637 27.396-.686-.398-.838.478.686.399z"
                                                                                           opacity="1"
                                                                                           data-original="#ecf0f1"
                                                                                           class=""></path><path
        fill="#c4c6c6" d="m18.799 27.875.004 1.273.102-.059-.003-1.156.735-.419v-.118z" opacity="1"
        data-original="#c4c6c6"></path><path fill="#e0e2e2" d="m17.488 27.112-.686-.398.004 1.274.686.398z" opacity="1"
                                             data-original="#e0e2e2" class=""></path><path fill="#ecf0f1"
                                                                                           d="m18.326 26.634-.686-.398-.838.478.686.398z"
                                                                                           opacity="1"
                                                                                           data-original="#ecf0f1"
                                                                                           class=""></path><path
        fill="#c4c6c6" d="m17.488 27.112.004 1.274.102-.059-.003-1.156.735-.419v-.118z" opacity="1"
        data-original="#c4c6c6"></path><path fill="#e0e2e2" d="m16.177 26.35-.686-.398.004 1.274.686.398z" opacity="1"
                                             data-original="#e0e2e2" class=""></path><path fill="#ecf0f1"
                                                                                           d="m17.015 25.872-.686-.398-.838.478.686.398z"
                                                                                           opacity="1"
                                                                                           data-original="#ecf0f1"
                                                                                           class=""></path><path
        fill="#c4c6c6" d="m16.177 26.35.004 1.274.102-.059-.003-1.156.735-.419v-.118z" opacity="1"
        data-original="#c4c6c6"></path><path fill="#e0e2e2" d="m14.866 25.588-.686-.398.004 1.274.686.398z" opacity="1"
                                             data-original="#e0e2e2" class=""></path><path fill="#ecf0f1"
                                                                                           d="m15.704 25.11-.686-.398-.838.478.686.398z"
                                                                                           opacity="1"
                                                                                           data-original="#ecf0f1"
                                                                                           class=""></path><path
        fill="#c4c6c6" d="m14.866 25.588.004 1.274.102-.06-.003-1.155.735-.42v-.117z" opacity="1"
        data-original="#c4c6c6"></path><path fill="#e0e2e2" d="m15.022 24.007.685-.398v.117l-.686.399z" opacity="1"
                                             data-original="#e0e2e2" class=""></path><path fill="#e0e2e2"
                                                                                           d="m15.597 22.944.686-.399-.004 1.156-.685.399zM16.333 23.245l.685-.399v.118l-.686.399z"
                                                                                           opacity="1"
                                                                                           data-original="#e0e2e2"
                                                                                           class=""></path><path
        fill="#e0e2e2" d="m16.908 22.182.686-.399-.004 1.156-.685.399zM17.644 22.483l.685-.399v.118l-.686.399z"
        opacity="1" data-original="#e0e2e2" class=""></path><path fill="#e0e2e2"
                                                                  d="m18.22 21.42.685-.399-.004 1.156-.685.399zM18.955 21.72l.685-.398v.118l-.686.398z"
                                                                  opacity="1" data-original="#e0e2e2" class=""></path><path
        fill="#e0e2e2" d="m19.53 20.657.686-.398-.004 1.156-.685.399zM20.266 20.959l.685-.399v.118l-.686.398z"
        opacity="1" data-original="#e0e2e2" class=""></path><path fill="#e0e2e2"
                                                                  d="m20.841 19.895.686-.398-.004 1.156-.685.398zM21.576 20.196l.686-.398v.118l-.686.398z"
                                                                  opacity="1" data-original="#e0e2e2" class=""></path><path
        fill="#e0e2e2" d="m22.152 19.133.686-.398-.004 1.156-.685.398zM22.887 19.434l.686-.398v.118l-.686.398z"
        opacity="1" data-original="#e0e2e2" class=""></path><path fill="#e0e2e2"
                                                                  d="m23.463 18.371.686-.398-.004 1.156-.685.398zM24.198 18.672l.686-.398v.118l-.686.398z"
                                                                  opacity="1" data-original="#e0e2e2" class=""></path><path
        fill="#ecf0f1" d="m23.36 18.194.686-.398.838.478-.686.398z" opacity="1" data-original="#ecf0f1" class=""></path><path
        fill="#c4c6c6" d="M24.198 18.672v.118l-.735-.419-.003 1.156-.103-.059.004-1.274z" opacity="1"
        data-original="#c4c6c6"></path><path fill="#ecf0f1" d="m22.05 18.956.685-.398.838.478-.686.398z" opacity="1"
                                             data-original="#ecf0f1" class=""></path><path fill="#c4c6c6"
                                                                                           d="M22.887 19.434v.118l-.735-.419-.003 1.156-.103-.059.004-1.274z"
                                                                                           opacity="1"
                                                                                           data-original="#c4c6c6"></path><path
        fill="#ecf0f1" d="m20.739 19.718.685-.398.838.478-.686.398z" opacity="1" data-original="#ecf0f1"
        class=""></path><path fill="#c4c6c6" d="M21.576 20.196v.118l-.735-.419-.003 1.156-.103-.059.004-1.274z"
                              opacity="1" data-original="#c4c6c6"></path><path fill="#ecf0f1"
                                                                               d="m19.428 20.48.686-.398.837.478-.685.399z"
                                                                               opacity="1" data-original="#ecf0f1"
                                                                               class=""></path><path fill="#c4c6c6"
                                                                                                     d="M20.266 20.959v.117l-.736-.419-.003 1.157-.103-.06.004-1.274z"
                                                                                                     opacity="1"
                                                                                                     data-original="#c4c6c6"></path><path
        fill="#ecf0f1" d="m18.117 21.243.686-.399.837.478-.685.399z" opacity="1" data-original="#ecf0f1"
        class=""></path><path fill="#c4c6c6" d="M18.955 21.72v.118l-.736-.418-.003 1.156-.103-.06.004-1.273z"
                              opacity="1" data-original="#c4c6c6"></path><path fill="#ecf0f1"
                                                                               d="m16.806 22.005.686-.399.837.478-.685.399z"
                                                                               opacity="1" data-original="#ecf0f1"
                                                                               class=""></path><path fill="#c4c6c6"
                                                                                                     d="M17.644 22.483v.118l-.736-.42-.003 1.157-.103-.06.004-1.273z"
                                                                                                     opacity="1"
                                                                                                     data-original="#c4c6c6"></path><path
        fill="#ecf0f1" d="m15.495 22.767.686-.399.837.478-.685.399z" opacity="1" data-original="#ecf0f1"
        class=""></path><path fill="#c4c6c6" d="M16.333 23.245v.118l-.736-.42-.003 1.157-.103-.06.004-1.273z"
                              opacity="1" data-original="#c4c6c6"></path><path fill="#ecf0f1"
                                                                               d="m14.184 23.529.686-.398.837.478-.685.398z"
                                                                               opacity="1" data-original="#ecf0f1"
                                                                               class=""></path><path fill="#c4c6c6"
                                                                                                     d="M15.022 24.007v.118l-.736-.42-.003 1.157-.103-.06.004-1.273z"
                                                                                                     opacity="1"
                                                                                                     data-original="#c4c6c6"></path><path
        fill="#e0e2e2" d="m26.961 30.923.686-.398-.004 1.273-.685.399z" opacity="1" data-original="#e0e2e2"
        class=""></path><path fill="#ecf0f1" d="m26.124 30.445.685-.399.838.479-.686.398z" opacity="1"
                              data-original="#ecf0f1" class=""></path><path fill="#c4c6c6"
                                                                            d="m26.961 30.923-.003 1.274-.103-.06.004-1.155-.735-.42v-.117z"
                                                                            opacity="1" data-original="#c4c6c6"></path><path
        fill="#e0e2e2" d="m28.272 30.16.686-.398-.004 1.274-.685.399z" opacity="1" data-original="#e0e2e2"
        class=""></path><path fill="#ecf0f1" d="m27.435 29.683.685-.399.838.478-.686.399z" opacity="1"
                              data-original="#ecf0f1" class=""></path><path fill="#c4c6c6"
                                                                            d="m28.272 30.16-.003 1.275-.103-.06.004-1.156-.735-.418v-.118z"
                                                                            opacity="1" data-original="#c4c6c6"></path><path
        fill="#e0e2e2" d="M29.583 29.399 30.27 29l-.004 1.274-.685.399z" opacity="1" data-original="#e0e2e2"
        class=""></path><path fill="#ecf0f1" d="m28.746 28.92.685-.398.838.478-.686.399z" opacity="1"
                              data-original="#ecf0f1" class=""></path><path fill="#c4c6c6"
                                                                            d="m29.583 29.399-.003 1.274-.103-.06.004-1.156-.736-.419v-.117z"
                                                                            opacity="1" data-original="#c4c6c6"></path><path
        fill="#e0e2e2" d="m30.894 28.637.686-.399-.004 1.274-.685.398z" opacity="1" data-original="#e0e2e2"
        class=""></path><path fill="#ecf0f1" d="m30.057 28.159.685-.399.838.478-.686.399z" opacity="1"
                              data-original="#ecf0f1" class=""></path><path fill="#c4c6c6"
                                                                            d="m30.894 28.637-.003 1.273-.103-.059.004-1.156-.736-.419v-.117z"
                                                                            opacity="1" data-original="#c4c6c6"></path><path
        fill="#e0e2e2" d="m32.205 27.875.686-.399-.004 1.274-.685.398z" opacity="1" data-original="#e0e2e2"
        class=""></path><path fill="#ecf0f1" d="m31.368 27.396.685-.398.838.478-.686.399z" opacity="1"
                              data-original="#ecf0f1" class=""></path><path fill="#c4c6c6"
                                                                            d="m32.205 27.875-.003 1.273-.103-.059.004-1.156-.736-.419v-.118z"
                                                                            opacity="1" data-original="#c4c6c6"></path><path
        fill="#e0e2e2" d="m33.516 27.112.686-.398-.004 1.274-.685.398z" opacity="1" data-original="#e0e2e2"
        class=""></path><path fill="#ecf0f1" d="m32.679 26.634.685-.398.838.478-.686.398z" opacity="1"
                              data-original="#ecf0f1" class=""></path><path fill="#c4c6c6"
                                                                            d="m33.516 27.112-.003 1.274-.103-.059.004-1.156-.736-.419v-.118z"
                                                                            opacity="1" data-original="#c4c6c6"></path><path
        fill="#e0e2e2" d="m34.827 26.35.686-.398-.004 1.274-.685.398z" opacity="1" data-original="#e0e2e2"
        class=""></path><path fill="#ecf0f1" d="m33.99 25.872.685-.398.838.478-.686.398z" opacity="1"
                              data-original="#ecf0f1" class=""></path><path fill="#c4c6c6"
                                                                            d="m34.827 26.35-.003 1.274-.103-.059.003-1.156-.735-.419v-.118z"
                                                                            opacity="1" data-original="#c4c6c6"></path><path
        fill="#e0e2e2" d="m36.138 25.588.686-.398-.004 1.274-.685.398z" opacity="1" data-original="#e0e2e2"
        class=""></path><path fill="#ecf0f1" d="m35.3 25.11.686-.398.838.478-.686.398z" opacity="1"
                              data-original="#ecf0f1" class=""></path><path fill="#c4c6c6"
                                                                            d="m36.138 25.588-.003 1.274-.103-.06.003-1.155-.735-.42v-.117z"
                                                                            opacity="1" data-original="#c4c6c6"></path><path
        fill="#4e5161" d="M36.13 24.114 25.42 30.339 14.64 24.116l10.712-6.225z" opacity="1" data-original="#4e5161"
        class=""></path><path fill="#ecf0f1" d="m33.36 24.118-7.95 4.62-8-4.62 7.95-4.62z" opacity="1"
                              data-original="#ecf0f1" class=""></path><path fill="#32a560"
                                                                            d="m46.38 23.198-23.92 13.9-.49-.29 23.91-13.9z"
                                                                            opacity="1" data-original="#32a560"
                                                                            class=""></path><path fill="#32a560"
                                                                                                  d="m28.24 37.348-.5.29-23.99-13.94.49-.29zM47.45 26.188l-.5.29-23.99-13.95.49-.29z"
                                                                                                  opacity="1"
                                                                                                  data-original="#32a560"
                                                                                                  class=""></path><path
        fill="#32a560"
        d="m28.83 13.068-23.92 13.9-.5-.29 23.92-13.9zM36.03 17.228l-2.29 1.33-.5-.29 2.29-1.33zM17.981 31.852l-2.29 1.33-.5-.29 2.29-1.33z"
        opacity="1" data-original="#32a560" class=""></path><path fill="#32a560"
                                                                  d="m18.4 18.608-.5.29-2.95-1.71.5-.29zM39.11 31.038l-.61.35-3.23-1.87.61-.36zM11.05 27.728l-2.4 1.4-.56-.32 2.41-1.4z"
                                                                  opacity="1" data-original="#32a560" class=""></path><path
        fill="#525566" d="M40.593 25.016v.334l1.94 1.127-.001-.334z" opacity="1" data-original="#525566"></path><path
        fill="#474b59" d="M42.532 26.143v.334l3.006-1.735v-.334z" opacity="1" data-original="#474b59" class=""></path><path
        fill="#5b5e71" d="m40.593 25.016 1.939 1.127 3.005-1.735-1.939-1.127z" opacity="1"
        data-original="#5b5e71"></path><path fill="#525566" d="M27.694 16.773v.334l1.94 1.127V17.9z" opacity="1"
                                             data-original="#525566"></path><path fill="#474b59"
                                                                                  d="M29.633 17.9v.334l3.006-1.735v-.334z"
                                                                                  opacity="1" data-original="#474b59"
                                                                                  class=""></path><path fill="#5b5e71"
                                                                                                        d="m27.694 16.773 1.94 1.127 3.004-1.735-1.939-1.127z"
                                                                                                        opacity="1"
                                                                                                        data-original="#5b5e71"></path><path
        fill="#525566" d="M22.862 35.321v.274l1.586.921v-.273z" opacity="1" data-original="#525566"></path><path
        fill="#474b59" d="M24.448 36.243v.273l2.458-1.419v-.273z" opacity="1" data-original="#474b59" class=""></path><path
        fill="#5b5e71" d="m22.862 35.321 1.586.922 2.458-1.42-1.586-.921z" opacity="1" data-original="#5b5e71"></path><path
        fill="#525566" d="M9.925 22.411v.335l1.94 1.126-.001-.334z" opacity="1" data-original="#525566"></path><path
        fill="#474b59" d="M11.864 23.538v.334l3.006-1.735v-.334z" opacity="1" data-original="#474b59" class=""></path><path
        fill="#5b5e71" d="m9.925 22.411 1.939 1.127 3.005-1.735-1.94-1.127z" opacity="1" data-original="#5b5e71"></path><path
        fill="#f1c40f"
        d="M32.222 34.02a.999.999 0 0 1-.504-1.864l1.708-.993a1 1 0 1 1 1.006 1.73l-1.708.992a.997.997 0 0 1-.502.135zM36.99 21.786a.992.992 0 0 1-.501-.136l-1.707-.993a1 1 0 0 1 1.006-1.728l1.707.993a1 1 0 0 1-.504 1.864zM20.987 16.534a.999.999 0 0 1-.504-1.864l1.708-.993a.998.998 0 0 1 1.367.362.999.999 0 0 1-.361 1.366l-1.708.993a.992.992 0 0 1-.502.136z"
        opacity="1" data-original="#f1c40f"></path></g></svg>