<svg xmlns="http://www.w3.org/2000/svg" version="1.1" xmlns:xlink="http://www.w3.org/1999/xlink" width="512"
     height="512" x="0" y="0" viewBox="0 0 50 50" style="enable-background:new 0 0 512 512" xml:space="preserve"
     class=""><g><path fill="#3d3d3d" d="M23.738 40.733c.64.369 1.152 1.265 1.15 1.99-.002.735-.518 1.03-1.157.66s-1.152-1.256-1.15-1.991c.002-.726.518-1.028 1.157-.66zM25.262 9.526c.125.072.227.25.227.393 0 .144-.104.203-.229.13l-2.872-1.657a.503.503 0 0 1-.227-.394c0-.143.104-.202.228-.13zM29.207 11.643c.198.115.36.402.359.63-.001.236-.163.329-.362.214a.797.797 0 0 1-.366-.634c.001-.227.163-.328.369-.21z" opacity="1" data-original="#3d3d3d" class=""></path><path
        fill="#ffffff" d="m32.515 15.405-.084 29.569-17.38-10.035.083-29.569z" opacity="1"
        data-original="#ffffff"></path><path fill="#3d3d3d"
                                             d="m35.772 12.989-.103 33.585c0 .449-.161.77-.415.92l-2.439 1.404c.265-.15.426-.46.426-.91l.092-33.584c0-.897-.633-2.013-1.427-2.473L15.764 2.61c-.403-.23-.76-.253-1.024-.103l2.44-1.404c.253-.161.61-.139 1.012.092l16.142 9.32c.794.46 1.438 1.575 1.438 2.473z"
                                             opacity="1" data-original="#3d3d3d" class=""></path><path fill="#282828"
                                                                                                       d="M31.906 11.934c.794.458 1.43 1.57 1.428 2.473l-.095 33.578c-.003.903-.644 1.277-1.437.819l-16.146-9.322c-.794-.458-1.43-1.57-1.428-2.473l.095-33.578c.003-.904.644-1.277 1.437-.82zm.525 33.04.084-29.57L15.134 5.37l-.085 29.57zm-8.7-1.59c.639.368 1.155.074 1.157-.66.002-.726-.51-1.623-1.15-1.992s-1.155-.066-1.157.66c-.002.735.51 1.622 1.15 1.991M22.389 7.868c-.124-.072-.228-.013-.228.13 0 .144.102.321.227.393l2.872 1.659c.125.072.228.013.229-.13a.503.503 0 0 0-.227-.394z"
                                                                                                       opacity="1"
                                                                                                       data-original="#282828"
                                                                                                       class=""></path><path
        fill="#14a0db"
        d="M20.218 10.278a.547.547 0 0 1 .248.429l-.012 4.242c0 .159-.113.22-.25.142l-3.691-2.132a.544.544 0 0 1-.248-.428l.012-4.242c0-.157.113-.221.25-.142z"
        opacity="1" data-original="#14a0db"></path><path fill="#f6d341"
                                                         d="M25.648 13.406a.547.547 0 0 1 .247.429l-.012 4.242c0 .16-.112.22-.248.142l-3.692-2.132a.544.544 0 0 1-.248-.428l.012-4.242c0-.157.113-.22.25-.142z"
                                                         opacity="1" data-original="#f6d341"></path><path fill="#dd454d"
                                                                                                          d="M31.078 16.535a.547.547 0 0 1 .247.428l-.012 4.242c0 .16-.112.22-.248.142l-3.692-2.131a.544.544 0 0 1-.248-.429l.012-4.242c0-.157.113-.22.25-.142z"
                                                                                                          opacity="1"
                                                                                                          data-original="#dd454d"></path><path
        fill="#115eac"
        d="M20.218 17.155a.547.547 0 0 1 .248.429l-.012 4.242c0 .159-.113.22-.25.142l-3.691-2.132a.544.544 0 0 1-.248-.428l.012-4.242c0-.157.113-.221.25-.142z"
        opacity="1" data-original="#115eac"></path><path fill="#3d3d3d"
                                                         d="M25.648 20.284a.547.547 0 0 1 .247.428l-.012 4.242c0 .16-.112.22-.248.142l-3.692-2.132a.544.544 0 0 1-.248-.428l.012-4.242c0-.157.113-.22.25-.142z"
                                                         opacity="1" data-original="#3d3d3d" class=""></path><path
        fill="#73ae43"
        d="M31.078 23.412a.547.547 0 0 1 .247.428l-.012 4.242c0 .16-.112.22-.248.142l-3.692-2.131a.544.544 0 0 1-.248-.429l.012-4.242c0-.157.113-.22.25-.142z"
        opacity="1" data-original="#73ae43"></path><path fill="#929393"
                                                         d="M20.218 24.032a.547.547 0 0 1 .248.429l-.012 4.242c0 .159-.113.22-.25.142l-3.691-2.132a.544.544 0 0 1-.248-.428l.012-4.242c0-.157.113-.221.25-.142z"
                                                         opacity="1" data-original="#929393"></path><path fill="#39414d"
                                                                                                          d="M25.648 27.16a.547.547 0 0 1 .247.429l-.012 4.242c0 .159-.112.22-.248.142l-3.692-2.132a.544.544 0 0 1-.248-.428l.012-4.242c0-.157.113-.22.25-.142z"
                                                                                                          opacity="1"
                                                                                                          data-original="#39414d"></path><path
        fill="#d89c60"
        d="M31.078 30.288a.547.547 0 0 1 .247.429l-.012 4.242c0 .16-.112.22-.248.142l-3.692-2.132a.544.544 0 0 1-.248-.428l.012-4.242c0-.157.113-.22.25-.142z"
        opacity="1" data-original="#d89c60"></path></g></svg>