<svg xmlns="http://www.w3.org/2000/svg" version="1.1" xmlns:xlink="http://www.w3.org/1999/xlink" width="512" height="512" x="0" y="0" viewBox="0 0 50 50" style="enable-background:new 0 0 512 512" xml:space="preserve" class=""><g><path fill="#3d3d3d" d="m41.191 37.96-.002 1.663L25.055 49l.002-1.663z" opacity="1" data-original="#3d3d3d" class=""></path><path fill="#4f4d4d" d="M25.056 47.337 25.054 49 8.81 39.62l.002-1.662z" opacity="1" data-original="#4f4d4d" class=""></path><path fill="#686868" d="m41.191 37.96-16.135 9.377-16.245-9.379 16.135-9.377z" opacity="1" data-original="#686868" class=""></path><path fill="#3d3d3d" d="m38.215 8.63-.084 29.466-13.129 7.63.084-29.466z" opacity="1" data-original="#3d3d3d" class=""></path><path fill="#4f4d4d" d="m25.085 16.26-.083 29.466-13.215-7.63.083-29.466z" opacity="1" data-original="#4f4d4d" class=""></path><path fill="#686868" d="m38.215 8.63-13.13 7.63L11.87 8.63 25 1z" opacity="1" data-original="#686868" class=""></path><path fill="#4f4d4d" d="m13.859 8.627 11.143-6.475 11.224 6.48-11.142 6.476z" opacity="1" data-original="#4f4d4d" class=""></path><path fill="#3d3d3d" d="m13.437 23.589-.055 15.454-.534-.308.055-15.455zM14.76 24.353l-.054 15.455-.535-.309.055-15.454zM16.084 25.117l-.055 15.455-.535-.309.056-15.454zM17.407 25.881l-.055 15.455-.534-.309.055-15.454zM18.73 26.645 18.677 42.1l-.535-.309.055-15.454zM20.054 27.41 20 42.863l-.534-.308.055-15.455zM21.378 28.174l-.055 15.454-.535-.308.055-15.455zM22.701 28.938l-.055 15.454-.534-.308.055-15.455zM24.025 29.702l-.055 15.454-.535-.308.055-15.455z" opacity="1" data-original="#3d3d3d" class=""></path><path fill="#fddb00" d="M13.908 16.85c.249.144.45.494.448.78 0 .283-.202.402-.451.258s-.45-.495-.449-.777c.001-.287.203-.405.452-.261z" opacity="1" data-original="#fddb00"></path><path fill="#a9c838" d="M23.194 22.211c.25.144.45.494.448.781 0 .282-.202.401-.451.257s-.453-.496-.452-.779c0-.286.206-.403.455-.259z" opacity="1" data-original="#a9c838"></path><path fill="#ee4541" d="M13.903 18.5c.25.144.45.49.449.777s-.203.401-.452.257-.45-.49-.448-.777.202-.4.451-.257z" opacity="1" data-original="#ee4541"></path><path fill="#fddb00" d="M13.899 20.147c.249.144.449.49.448.777 0 .286-.202.405-.451.26s-.45-.494-.449-.78c0-.286.202-.401.452-.257z" opacity="1" data-original="#fddb00"></path><path fill="#ee4541" d="M13.894 21.797c.249.144.45.49.448.777 0 .286-.202.401-.451.257s-.45-.49-.449-.776c.001-.287.203-.402.452-.258z" opacity="1" data-original="#ee4541"></path><path fill="#4f4d4d" d="m15.331 20.974-.007 2.685-.33-.19.009-2.685zM16.238 21.497l-.008 2.685-.325-.188.008-2.684zM17.148 22.023l-.007 2.685-.325-.188.007-2.685zM18.059 22.549l-.008 2.684-.329-.19.008-2.684zM18.965 23.072l-.007 2.685-.325-.188.007-2.685zM19.876 23.598l-.008 2.684-.329-.19.008-2.684zM20.783 24.121l-.008 2.685-.325-.188.007-2.685zM21.693 24.647l-.008 2.684-.329-.19.008-2.684zM22.603 25.172l-.008 2.685-.328-.19.007-2.685zM23.51 25.696l-.008 2.684-.325-.187.008-2.685z" opacity="1" data-original="#4f4d4d" class=""></path><path fill="#3d3d3d" d="m12.867 15.72 11.284 6.514-.02 7.039-11.284-6.514zm10.324 7.53c.25.143.45.024.451-.258.001-.287-.199-.637-.448-.781s-.454-.027-.455.26c0 .282.203.634.452.778m-9.286-5.361c.25.144.45.025.451-.257.001-.287-.199-.637-.448-.781-.25-.144-.45-.025-.452.261 0 .282.2.633.449.777m-.01 3.297c.25.144.451.025.452-.261s-.2-.633-.449-.777-.45-.03-.451.257.2.637.449.78m.004-1.65c.25.144.45.03.452-.257s-.2-.633-.449-.777c-.25-.144-.45-.029-.451.257s.199.633.448.777m-.01 3.297c.25.144.451.03.452-.257.001-.286-.2-.633-.448-.777s-.45-.029-.452.257c0 .287.2.633.449.777m5.977 3.451.008-2.684-.329-.19-.008 2.685zm-4.544-2.623.007-2.685-.328-.19-.008 2.685zm7.272 4.198.007-2.685-.329-.19-.007 2.685zm-4.545-2.624.008-2.684-.33-.19-.007 2.684zm3.634 2.098.008-2.684-.329-.19-.008 2.685zm-2.727-1.574.008-2.685-.326-.188-.007 2.685zm-2.727-1.575.007-2.684-.325-.188-.008 2.684zm.91.526.007-2.685-.325-.188-.008 2.685zm6.361 3.672.008-2.684-.325-.188-.008 2.685zm-2.727-1.574.008-2.685-.326-.188-.007 2.685z" opacity="1" data-original="#3d3d3d" class=""></path><path fill="#a2ddf4" d="M18.44 14.294c.684.395 1.24 1.355 1.237 2.14-.002.789-.561 1.105-1.245.71-.686-.395-1.24-1.354-1.237-2.142.002-.786.56-1.103 1.245-.708zm-.007 2.59c.56.324 1.015.065 1.016-.58.002-.644-.45-1.427-1.01-1.75s-1.016-.065-1.018.578c-.002.645.452 1.43 1.012 1.753" opacity="1" data-original="#a2ddf4"></path></g></svg>